<svg width="600" height="600" viewBox="0 0 600 600" fill="none" xmlns="http://www.w3.org/2000/svg">
<rect x="250" y="250" width="100" height="100" rx="10" fill="#DB2C2C"/>
<path d="M302.15 277.8C305.47 277.8 308.15 278.27 310.19 279.21C312.23 280.15 313.72 281.44 314.66 283.08C315.6 284.7 316.07 286.54 316.07 288.6C316.07 290.7 315.66 292.52 314.84 294.06C314.02 295.58 312.99 296.77 311.75 297.63C310.53 298.49 309.3 298.98 308.06 299.1C309.3 299.14 310.63 299.49 312.05 300.15C313.49 300.81 314.71 301.88 315.71 303.36C316.73 304.84 317.24 306.83 317.24 309.33C317.24 311.61 316.78 313.72 315.86 315.66C314.94 317.58 313.38 319.13 311.18 320.31C309 321.47 305.99 322.05 302.15 322.05H282.8V277.8H302.15ZM294.32 298.14L290.36 294.96H299C300.8 294.96 302.08 294.55 302.84 293.73C303.62 292.89 304.01 291.88 304.01 290.7C304.01 289.88 303.84 289.18 303.5 288.6C303.18 288.02 302.65 287.58 301.91 287.28C301.17 286.96 300.2 286.8 299 286.8H288.86L294.32 281.34V298.14ZM299.78 313.02C301.58 313.02 302.88 312.59 303.68 311.73C304.5 310.85 304.91 309.8 304.91 308.58C304.91 307.98 304.81 307.4 304.61 306.84C304.41 306.28 304.1 305.78 303.68 305.34C303.28 304.9 302.75 304.55 302.09 304.29C301.45 304.03 300.68 303.9 299.78 303.9H290.36L294.32 300.72V318.48L288.86 313.02H299.78Z" fill="white"/>
<g opacity="0.5">
<rect x="225.5" y="225.5" width="149" height="149" rx="9.5" stroke="#DB2C2C"/>
<rect x="200.5" y="200.5" width="199" height="199" rx="9.5" stroke="#DB2C2C" stroke-opacity="0.9"/>
<rect x="175.5" y="175.5" width="249" height="249" rx="9.5" stroke="#DB2C2C" stroke-opacity="0.8"/>
<rect x="150.5" y="150.5" width="299" height="299" rx="9.5" stroke="#DB2C2C" stroke-opacity="0.7"/>
<rect x="125.5" y="125.5" width="349" height="349" rx="9.5" stroke="#DB2C2C" stroke-opacity="0.6"/>
<rect x="100.5" y="100.5" width="399" height="399" rx="9.5" stroke="#DB2C2C" stroke-opacity="0.5"/>
<rect x="75.5" y="75.5" width="449" height="449" rx="9.5" stroke="#DB2C2C" stroke-opacity="0.4"/>
<rect x="0.5" y="0.5" width="599" height="599" rx="9.5" stroke="#DB2C2C" stroke-opacity="0.1"/>
<rect x="50.5" y="50.5" width="499" height="499" rx="9.5" stroke="#DB2C2C" stroke-opacity="0.3"/>
<rect x="25.5" y="25.5" width="549" height="549" rx="9.5" stroke="#DB2C2C" stroke-opacity="0.2"/>
</g>
</svg>
