<svg width="75" height="75" viewBox="0 0 75 75" fill="none" xmlns="http://www.w3.org/2000/svg">
<path d="M37.5 0C58.2107 0 75 16.7893 75 37.5C75 58.2107 58.2107 75 37.5 75C16.7893 75 0 58.2107 0 37.5C0 16.7893 16.7893 0 37.5 0ZM37.1934 19.1396C35.0983 19.1396 33.1747 19.5418 31.4229 20.3467C29.6828 21.1516 28.2735 22.2756 27.1963 23.7197C26.1191 25.152 25.5456 26.8218 25.4746 28.7275H29.7354C29.7945 27.5202 30.1737 26.49 30.8721 25.6377C31.5705 24.7736 32.4704 24.1168 33.5713 23.667C34.6839 23.2054 35.8674 22.9746 37.1221 22.9746C38.4597 22.9746 39.6201 23.2293 40.6025 23.7383C41.5965 24.2472 42.3657 24.957 42.9102 25.8682C43.4546 26.7795 43.7275 27.8511 43.7275 29.082C43.7275 30.3604 43.4135 31.4739 42.7861 32.4209C42.1707 33.3676 41.3125 34.1013 40.2119 34.6221C39.1229 35.1429 37.8562 35.4033 36.4121 35.4033H33.5V39.3096H36.4121C38.2586 39.3096 39.8212 39.5997 41.0996 40.1797C42.3779 40.7597 43.3489 41.5649 44.0117 42.5947C44.6744 43.6126 45.0059 44.7905 45.0059 46.1279C45.0058 47.4062 44.662 48.5304 43.9756 49.501C43.289 50.4716 42.3422 51.2299 41.1348 51.7744C39.9275 52.3188 38.5427 52.5908 36.9805 52.5908C35.5838 52.5908 34.3112 52.36 33.1631 51.8984C32.0149 51.4368 31.0852 50.7857 30.375 49.9453C29.6648 49.0931 29.2627 48.081 29.168 46.9092H24.6934C24.7881 48.8149 25.3683 50.4895 26.4336 51.9336C27.5108 53.3659 28.9603 54.4851 30.7832 55.29C32.6179 56.0949 34.7072 56.497 37.0508 56.4971C39.4064 56.4971 41.5079 56.0471 43.3545 55.1475C45.201 54.2478 46.6573 53.0166 47.7227 51.4541C48.7996 49.8799 49.3379 48.1045 49.3379 46.1279C49.3379 43.8197 48.6926 41.8838 47.4023 40.3213C46.1121 38.7472 44.3186 37.7704 42.0225 37.3916V37.1084C43.8572 36.5521 45.3077 35.5515 46.373 34.1074C47.4502 32.6633 47.9883 30.917 47.9883 28.8691C47.9883 27.1528 47.5565 25.5548 46.6924 24.0752C45.8283 22.5956 44.5912 21.4064 42.9814 20.5068C41.3716 19.5954 39.4423 19.1397 37.1934 19.1396Z" fill="#DB2C2C"/>
</svg>
