<svg width="205" height="31" viewBox="0 0 205 31" fill="none" xmlns="http://www.w3.org/2000/svg">
<path fill-rule="evenodd" clip-rule="evenodd" d="M12.9258 2.63932C15.0169 2.63935 16.8834 3.1404 18.5247 4.14258C20.1739 5.13687 21.4724 6.56485 22.4193 8.42708C23.3662 10.2816 23.8392 12.5034 23.8392 15.0918C23.8392 17.68 23.3661 19.9053 22.4193 21.7676C21.731 23.1155 20.8556 24.2371 19.7962 25.1348L23.0579 29.3906H19.3177L17.2546 26.7031C15.9383 27.2634 14.4955 27.5442 12.9258 27.5443C10.8267 27.5443 8.95204 27.0471 7.30273 26.0527C5.66142 25.0505 4.3675 23.6182 3.42057 21.7559C2.47362 19.8935 2.00002 17.6722 2 15.0918C2 12.5034 2.4736 10.2816 3.42057 8.42708C4.36748 6.56496 5.66154 5.13683 7.30273 4.14258C8.95204 3.14037 10.8267 2.63932 12.9258 2.63932ZM12.9258 5.97721C11.529 5.97721 10.2818 6.32826 9.1849 7.0306C8.08806 7.72503 7.21991 8.75084 6.58073 10.1081C5.94942 11.4575 5.63411 13.1189 5.63411 15.0918C5.63413 17.0646 5.94943 18.7299 6.58073 20.0872C7.21991 21.4366 8.08806 22.4624 9.1849 23.1647C10.2818 23.8592 11.529 24.2064 12.9258 24.2064C13.7115 24.2064 14.4503 24.0947 15.1426 23.8724L11.6947 19.3529H15.293L17.6309 22.401C18.2839 21.7809 18.8268 21.0099 19.2585 20.0872C19.8977 18.7299 20.2174 17.0646 20.2174 15.0918C20.2174 13.1189 19.8977 11.4575 19.2585 10.1081C18.6272 8.75082 17.759 7.72502 16.6543 7.0306C15.5574 6.3283 14.3146 5.97725 12.9258 5.97721Z" fill="white"/>
<path fill-rule="evenodd" clip-rule="evenodd" d="M96.028 8.79427C97.7325 8.79427 99.2204 9.1849 100.491 9.96615C101.761 10.7474 102.748 11.8446 103.45 13.2572C104.152 14.6697 104.503 16.3191 104.503 18.2051C104.503 20.0831 104.152 21.7243 103.45 23.1289C102.748 24.5336 101.761 25.627 100.491 26.4082C99.2204 27.1895 97.7325 27.5801 96.028 27.5801C94.3236 27.5801 92.8362 27.1893 91.5658 26.4082C90.2952 25.627 89.3085 24.5336 88.6061 23.1289C87.9039 21.7243 87.5528 20.0831 87.5527 18.2051C87.5527 16.3191 87.9039 14.6697 88.6061 13.2572C89.3085 11.8446 90.2952 10.7474 91.5658 9.96615C92.8362 9.185 94.3236 8.79428 96.028 8.79427ZM96.0397 11.7539C94.9272 11.7539 94.004 12.0495 93.2702 12.6413C92.5442 13.2331 92.0035 14.0183 91.6484 14.9967C91.3012 15.9673 91.1276 17.0328 91.1276 18.1927C91.1276 19.3606 91.3012 20.4304 91.6484 21.401C92.0035 22.3716 92.5442 23.1491 93.2702 23.7331C94.004 24.3169 94.9272 24.6087 96.0397 24.6087C97.1445 24.6087 98.0604 24.317 98.7865 23.7331C99.5124 23.1492 100.049 22.3716 100.396 21.401C100.751 20.4304 100.928 19.3606 100.928 18.1927C100.928 17.0328 100.751 15.9673 100.396 14.9967C100.049 14.0184 99.5123 13.2331 98.7865 12.6413C98.0604 12.0494 97.1445 11.7539 96.0397 11.7539Z" fill="white"/>
<path d="M31.6549 20.1699C31.655 21.4088 31.9984 22.395 32.6849 23.1289C33.3714 23.8628 34.2631 24.2298 35.36 24.2298C36.0228 24.2298 36.6817 24.0644 37.3366 23.7331C37.9995 23.4016 38.5477 22.8999 38.9818 22.2292C39.4237 21.5584 39.6407 20.7063 39.6328 19.6725V9.03125H43.1842V27.2129H39.7044V24.0645H39.515C39.0967 25.035 38.4258 25.8438 37.5026 26.4909C36.5872 27.1301 35.4466 27.4499 34.0814 27.4499C32.9136 27.4499 31.88 27.1932 30.9805 26.6803C30.0887 26.1595 29.386 25.3897 28.873 24.3717C28.3681 23.3538 28.1159 22.095 28.1159 20.5957V9.03125H31.6549V20.1699Z" fill="white"/>
<path d="M80.9212 9.03125H84.6497V11.8717H80.9212V21.8743C80.9212 22.5609 81.0233 23.0779 81.2285 23.4251C81.4337 23.7645 81.6986 23.9974 82.0221 24.1237C82.3535 24.242 82.7124 24.3008 83.099 24.3008C83.383 24.3008 83.632 24.281 83.845 24.2415C84.0579 24.2021 84.2235 24.1708 84.3418 24.1471L84.9811 27.071C84.776 27.1499 84.4841 27.2284 84.1055 27.3073C83.7267 27.3941 83.253 27.442 82.6849 27.4499C81.7538 27.4657 80.8856 27.2996 80.0807 26.9525C79.2758 26.6053 78.6248 26.0685 78.1276 25.3424C77.6305 24.6164 77.3815 23.705 77.3815 22.6081V11.8717H74.7181V9.03125H77.3815V4.67513H80.9212V9.03125Z" fill="white"/>
<path d="M51.4792 27.2129H47.9401V9.03125H51.4792V27.2129Z" fill="white"/>
<path d="M65.2253 8.79427C66.4641 8.79432 67.5494 9.05473 68.4805 9.57552C69.4115 10.0884 70.1336 10.8539 70.6465 11.8717C71.1594 12.8897 71.416 14.1485 71.416 15.6478V27.2129H67.8763V16.0742C67.8763 14.7564 67.5329 13.7262 66.8464 12.9844C66.1598 12.2349 65.2169 11.86 64.0176 11.86C63.1969 11.86 62.4667 12.0375 61.8275 12.3926C61.1962 12.7477 60.6951 13.2686 60.3242 13.9551C59.9612 14.6337 59.78 15.4546 59.7799 16.4173V27.2129H56.2409V9.03125H59.638V11.9902H59.8626C60.2808 11.0276 60.9359 10.2545 61.8275 9.67057C62.7271 9.08661 63.86 8.79427 65.2253 8.79427Z" fill="white"/>
<path d="M117.439 8.79427C118.678 8.79432 119.763 9.05473 120.694 9.57552C121.625 10.0884 122.347 10.8539 122.86 11.8717C123.373 12.8897 123.63 14.1485 123.63 15.6478V27.2129H120.09V16.0742C120.09 14.7564 119.746 13.7262 119.06 12.9844C118.373 12.2349 117.43 11.86 116.231 11.86C115.41 11.86 114.68 12.0375 114.041 12.3926C113.41 12.7477 112.909 13.2686 112.538 13.9551C112.175 14.6337 111.993 15.4546 111.993 16.4173V27.2129H108.454V9.03125H111.852V11.9902H112.076C112.494 11.0276 113.149 10.2545 114.041 9.67057C114.941 9.08661 116.074 8.79427 117.439 8.79427Z" fill="white"/>
<path fill-rule="evenodd" clip-rule="evenodd" d="M142.018 2.9707C144.511 2.97072 146.665 3.45582 148.48 4.42643C150.303 5.38918 151.708 6.77807 152.695 8.5931C153.689 10.4002 154.186 12.5666 154.186 15.0918C154.186 17.617 153.693 19.7872 152.706 21.6022C151.72 23.4093 150.323 24.7983 148.516 25.7689C146.709 26.7316 144.574 27.2129 142.112 27.2129H132.785V2.9707H142.018ZM139.366 21.6257H141.876C143.075 21.6256 144.097 21.4322 144.941 21.0456C145.794 20.6589 146.441 19.9924 146.883 19.0456C147.333 18.0986 147.557 16.7805 147.557 15.0918C147.557 13.403 147.328 12.085 146.87 11.138C146.421 10.1911 145.758 9.52403 144.882 9.13737C144.014 8.75071 142.949 8.55731 141.686 8.55729H139.366V21.6257Z" fill="white"/>
<path d="M175.785 8.27344H163.812V12.4401H177.118L178.785 17.7435H163.812V21.9102H180.222L181.889 27.2129H157.231V2.9707H173.956L175.785 8.27344Z" fill="white"/>
<path d="M191.19 20.0632H191.38L196.351 2.9707H203.785L195.783 27.2129H186.786L178.785 2.9707H186.218L191.19 20.0632Z" fill="white"/>
<path d="M49.7272 2C50.3427 2 50.8674 2.20882 51.3014 2.62695C51.7433 3.03727 51.9641 3.5346 51.9642 4.11849C51.9642 4.69456 51.7433 5.19178 51.3014 5.61003C50.8674 6.02038 50.3427 6.22591 49.7272 6.22591C49.1117 6.22591 48.5832 6.02033 48.1413 5.61003C47.7072 5.19178 47.4902 4.69456 47.4902 4.11849C47.4903 3.5346 47.7073 3.03727 48.1413 2.62695C48.5831 2.20887 49.1118 2 49.7272 2Z" fill="white"/>
</svg>
