<svg width="301" height="39" viewBox="0 0 301 39" fill="none" xmlns="http://www.w3.org/2000/svg">
<path d="M11.6848 4.71966C13.3976 4.71966 14.7801 4.96212 15.8325 5.44706C16.8849 5.93199 17.6536 6.59748 18.1385 7.44354C18.6235 8.27927 18.8659 9.2285 18.8659 10.2912C18.8659 11.3746 18.6544 12.3135 18.2314 13.108C17.8084 13.8921 17.277 14.506 16.6373 14.9497C16.0079 15.3933 15.3734 15.6461 14.7337 15.708C15.3734 15.7287 16.0595 15.9092 16.7921 16.2497C17.535 16.5902 18.1643 17.1422 18.6802 17.9057C19.2064 18.6692 19.4695 19.6958 19.4695 20.9855C19.4695 22.1618 19.2322 23.2503 18.7576 24.2511C18.283 25.2416 17.4782 26.0412 16.3433 26.65C15.2186 27.2484 13.6658 27.5476 11.6848 27.5476H1.70242V4.71966H11.6848ZM7.64543 15.2128L5.60252 13.5723H10.0598C10.9884 13.5723 11.6487 13.3607 12.0408 12.9377C12.4432 12.5044 12.6444 11.9833 12.6444 11.3746C12.6444 10.9516 12.5567 10.5904 12.3813 10.2912C12.2162 9.99201 11.9428 9.76502 11.561 9.61026C11.1792 9.44517 10.6788 9.36263 10.0598 9.36263H4.82869L7.64543 6.54589V15.2128ZM10.4622 22.8892C11.3908 22.8892 12.0614 22.6673 12.4741 22.2237C12.8971 21.7697 13.1087 21.228 13.1087 20.5986C13.1087 20.2891 13.0571 19.9899 12.9539 19.701C12.8507 19.4121 12.6908 19.1541 12.4741 18.9272C12.2678 18.7002 11.9943 18.5196 11.6539 18.3855C11.3237 18.2513 10.9265 18.1843 10.4622 18.1843H5.60252L7.64543 16.5438V25.7059L4.82869 22.8892H10.4622ZM27.7824 27.8726C26.6268 27.8726 25.6776 27.6921 24.9347 27.3309C24.2021 26.9698 23.6295 26.4746 23.2168 25.8452C22.8041 25.2158 22.5152 24.5039 22.3501 23.7094C22.185 22.9046 22.1025 22.0637 22.1025 21.1867C22.1025 20.8256 22.1025 20.4439 22.1025 20.0415C22.1025 19.6288 22.1025 19.2057 22.1025 18.7724V11.1115H28.3395V17.72C28.3395 18.0605 28.3395 18.3803 28.3395 18.6795C28.3395 18.9787 28.3395 19.2522 28.3395 19.4998C28.3395 20.0879 28.386 20.6296 28.4788 21.1248C28.582 21.6098 28.7884 22.0018 29.0979 22.301C29.4074 22.5899 29.8717 22.7344 30.4908 22.7344C31.1099 22.7344 31.6206 22.5693 32.023 22.2391C32.4254 21.8987 32.7246 21.4602 32.9206 20.9236C33.127 20.3768 33.2301 19.799 33.2301 19.1903L34.4373 20.5831C34.4373 21.7078 34.2825 22.7189 33.973 23.6166C33.6738 24.5142 33.2353 25.2829 32.6575 25.9226C32.09 26.5519 31.3936 27.0369 30.5682 27.3774C29.7531 27.7075 28.8245 27.8726 27.7824 27.8726ZM33.2301 27.5476V11.1115H39.4672V27.5476H33.2301ZM51.5467 27.95C50.8347 27.95 50.0816 27.8933 49.2871 27.7798C48.5029 27.6766 47.7652 27.4547 47.0739 27.1143C46.3827 26.7738 45.8203 26.2631 45.387 25.5821C44.9536 24.8908 44.737 23.9674 44.737 22.8118C44.737 22.5745 44.737 22.3372 44.737 22.0999C44.737 21.8625 44.737 21.6304 44.737 21.4034V15.7545H41.069V11.1115H41.1464C41.9512 11.1115 42.5909 11.0754 43.0655 11.0031C43.5504 10.9309 43.9116 10.7555 44.1489 10.4769C44.3862 10.1984 44.5409 9.75986 44.6132 9.16143C44.6957 8.56301 44.737 7.73759 44.737 6.68518V5.72563H50.9895V11.1115H55.5241V15.7545H50.9895V20.2891C50.9895 20.4439 50.9895 20.5986 50.9895 20.7534C50.9895 20.8978 50.9895 21.0474 50.9895 21.2022C50.9895 21.8006 51.0617 22.3062 51.2062 22.7189C51.3506 23.1316 51.7375 23.338 52.3669 23.338C52.7384 23.338 53.0892 23.3019 53.4193 23.2296C53.7495 23.1574 53.9971 23.0852 54.1622 23.013V27.5167C53.9249 27.6198 53.5793 27.7178 53.1253 27.8107C52.6816 27.9036 52.1554 27.95 51.5467 27.95ZM64.48 3.35772V27.5476H58.3358V3.35772H64.48ZM67.2377 27.5476V11.1115H73.4129V27.5476H67.2377ZM70.3176 9.17691C69.3993 9.17691 68.5945 8.9396 67.9032 8.46499C67.2223 7.99037 66.8818 7.31456 66.8818 6.43756C66.8818 5.55023 67.2223 4.87442 67.9032 4.41012C68.5945 3.93551 69.3993 3.6982 70.3176 3.6982C71.2359 3.6982 72.0355 3.93551 72.7164 4.41012C73.4077 4.87442 73.7534 5.55023 73.7534 6.43756C73.7534 7.32488 73.4077 8.00585 72.7164 8.48046C72.0355 8.94476 71.2359 9.17691 70.3176 9.17691ZM87.5263 27.5476V21.1558C87.5263 20.8256 87.5263 20.4954 87.5263 20.1653C87.5263 19.8351 87.5263 19.5514 87.5263 19.3141C87.5263 18.7466 87.4747 18.2049 87.3716 17.689C87.2787 17.1731 87.0569 16.7501 86.7061 16.4199C86.3656 16.0898 85.8187 15.9247 85.0655 15.9247C84.4155 15.9247 83.8893 16.0588 83.4869 16.3271C83.0845 16.5953 82.7905 16.9823 82.6048 17.4878C82.4191 17.9934 82.3262 18.6021 82.3262 19.3141L81.119 18.0759C81.119 16.5696 81.4234 15.2747 82.0321 14.1913C82.6409 13.0976 83.4715 12.2567 84.5239 11.6686C85.5763 11.0702 86.7628 10.771 88.0835 10.771C89.4867 10.771 90.601 11.0599 91.4264 11.6377C92.2518 12.2052 92.8451 12.9945 93.2062 14.0056C93.5777 15.0167 93.7634 16.1723 93.7634 17.4724C93.7634 18.0398 93.7634 18.6898 93.7634 19.4224C93.7634 20.155 93.7634 20.9288 93.7634 21.7439V27.5476H87.5263ZM76.0891 27.5476V11.1115H82.3262V27.5476H76.0891ZM103.901 27.95C102.931 27.95 101.972 27.8313 101.022 27.594C100.073 27.367 99.2065 27.0214 98.4223 26.5571C97.6485 26.0825 97.0243 25.4892 96.5497 24.7773C96.0854 24.0654 95.8532 23.2296 95.8532 22.2701C95.8532 22.2495 95.8532 22.2237 95.8532 22.1927C95.8532 22.1618 95.8532 22.136 95.8532 22.1153H102.028C102.028 22.136 102.028 22.1618 102.028 22.1927C102.028 22.2237 102.028 22.2495 102.028 22.2701C102.028 22.7034 102.214 23.0078 102.586 23.1832C102.957 23.3586 103.457 23.4463 104.087 23.4463C104.314 23.4463 104.577 23.4205 104.876 23.3689C105.175 23.307 105.433 23.209 105.65 23.0749C105.877 22.9304 105.99 22.7447 105.99 22.5177C105.99 22.1772 105.753 21.9399 105.278 21.8058C104.814 21.6613 103.999 21.4963 102.833 21.3105C102.132 21.1971 101.389 21.032 100.605 20.8153C99.8204 20.5883 99.0827 20.2839 98.3914 19.9022C97.7001 19.5101 97.1378 19.0149 96.7044 18.4164C96.2711 17.818 96.0544 17.0803 96.0544 16.2033C96.0544 15.0064 96.4155 14.0056 97.1378 13.2008C97.8703 12.396 98.835 11.7925 100.032 11.3901C101.239 10.9774 102.555 10.771 103.978 10.771C105.33 10.771 106.599 11.0031 107.786 11.4674C108.972 11.9214 109.937 12.5714 110.68 13.4175C111.423 14.2635 111.794 15.2644 111.794 16.4199C111.794 16.4406 111.794 16.4664 111.794 16.4973C111.794 16.5283 111.794 16.5541 111.794 16.5747H105.681C105.681 16.5541 105.681 16.5283 105.681 16.4973C105.681 16.4664 105.681 16.4406 105.681 16.4199C105.681 16.1311 105.588 15.9041 105.402 15.739C105.227 15.5636 105.005 15.4346 104.737 15.3521C104.469 15.2695 104.2 15.2283 103.932 15.2283C103.726 15.2283 103.478 15.254 103.189 15.3056C102.911 15.3469 102.668 15.4294 102.462 15.5533C102.255 15.6771 102.152 15.8576 102.152 16.0949C102.152 16.3013 102.281 16.4767 102.539 16.6211C102.807 16.7656 103.168 16.8894 103.622 16.9926C104.087 17.0854 104.603 17.1731 105.17 17.2557C105.758 17.3382 106.439 17.4724 107.213 17.6581C107.987 17.8438 108.74 18.1224 109.473 18.4938C110.205 18.8549 110.809 19.3502 111.283 19.9796C111.768 20.5986 112.011 21.3931 112.011 22.363C112.011 23.405 111.768 24.282 111.283 24.994C110.809 25.7059 110.169 26.2785 109.364 26.7119C108.57 27.1452 107.698 27.4599 106.749 27.6559C105.799 27.852 104.85 27.95 103.901 27.95Z" fill="#DB2C2C"/>
<path d="M132.093 7.04114L133.284 5.53992V15.8473L132.634 14.9342H141.394V17.2557H132.634L133.284 16.3426V26.7273L132.093 25.2261H143.112V27.5476H130.638V4.71966H143.112V7.04114H132.093ZM152.028 18.8033L151.997 20.0569L145.605 11.1115H148.484L153.823 18.4938L152.245 18.4474L157.398 11.1115H160.231L154.04 19.6546L154.21 18.8962L160.354 27.5476H157.46L152.152 20.2736L153.885 19.8712L148.221 27.5476H145.389L152.028 18.8033ZM163.681 34.3109V11.1115H166.312V34.3109H163.681ZM171.713 27.8571C170.444 27.8571 169.258 27.5476 168.154 26.9285C167.05 26.2992 166.152 25.4376 165.461 24.344C164.78 23.2503 164.439 22.0018 164.439 20.5986C164.439 20.5677 164.439 20.5419 164.439 20.5212C164.439 20.5006 164.439 20.4748 164.439 20.4439L166.327 20.3974C166.327 20.4181 166.327 20.4439 166.327 20.4748C166.327 20.4954 166.327 20.5161 166.327 20.5367C166.327 21.424 166.56 22.234 167.024 22.9665C167.499 23.6991 168.118 24.282 168.881 24.7154C169.645 25.1487 170.465 25.3654 171.342 25.3654C172.797 25.3654 174.004 24.8702 174.963 23.8797C175.933 22.8788 176.418 21.357 176.418 19.3141C176.418 17.2608 175.938 15.7441 174.979 14.764C174.019 13.7735 172.807 13.2782 171.342 13.2782C170.465 13.2782 169.645 13.4949 168.881 13.9282C168.118 14.3512 167.499 14.9239 167.024 15.6461C166.56 16.3684 166.327 17.1783 166.327 18.0759L164.439 18.014C164.439 16.6005 164.78 15.3572 165.461 14.2842C166.152 13.2111 167.05 12.3754 168.154 11.777C169.258 11.1682 170.444 10.8639 171.713 10.8639C173.044 10.8639 174.272 11.194 175.397 11.8544C176.521 12.5044 177.424 13.4588 178.105 14.7175C178.786 15.9763 179.127 17.5085 179.127 19.3141C179.127 21.1506 178.791 22.7086 178.121 23.988C177.45 25.2571 176.552 26.2218 175.428 26.8821C174.303 27.5321 173.065 27.8571 171.713 27.8571ZM184.09 20.382V18.0295H196.796L196.331 18.8033C196.331 18.7414 196.331 18.6847 196.331 18.6331C196.331 18.5712 196.331 18.5144 196.331 18.4629C196.331 17.5136 196.13 16.6469 195.728 15.8628C195.336 15.0683 194.748 14.4338 193.964 13.9592C193.179 13.4846 192.21 13.2473 191.054 13.2473C189.888 13.2473 188.861 13.4949 187.974 13.9901C187.087 14.4854 186.396 15.187 185.9 16.0949C185.405 16.9926 185.157 18.0656 185.157 19.3141C185.157 20.5831 185.395 21.6768 185.869 22.5951C186.354 23.5134 187.04 24.2201 187.928 24.7154C188.815 25.2106 189.867 25.4583 191.085 25.4583C191.952 25.4583 192.705 25.3706 193.344 25.1952C193.984 25.0094 194.51 24.767 194.923 24.4678C195.346 24.1582 195.666 23.8229 195.883 23.4618C196.099 23.1007 196.228 22.7396 196.27 22.3784H198.901C198.849 23.0388 198.643 23.6939 198.282 24.344C197.92 24.994 197.41 25.5872 196.749 26.1238C196.089 26.65 195.279 27.073 194.32 27.3928C193.36 27.7127 192.256 27.8726 191.008 27.8726C189.357 27.8726 187.902 27.5115 186.643 26.7893C185.384 26.067 184.394 25.0662 183.672 23.7868C182.96 22.5074 182.604 21.0371 182.604 19.376C182.604 17.6942 182.965 16.2188 183.687 14.9497C184.409 13.6703 185.405 12.6695 186.674 11.9472C187.943 11.225 189.393 10.8639 191.023 10.8639C192.684 10.8639 194.123 11.225 195.341 11.9472C196.558 12.6695 197.497 13.66 198.158 14.9187C198.818 16.1672 199.148 17.591 199.148 19.1903C199.148 19.3553 199.143 19.572 199.133 19.8403C199.122 20.1085 199.107 20.2891 199.086 20.382H184.09ZM203.249 27.5476V11.1115H205.88V16.1568L205.013 15.8473C205.075 15.2386 205.23 14.6401 205.478 14.052C205.725 13.4536 206.066 12.9171 206.499 12.4425C206.943 11.9575 207.495 11.5758 208.155 11.2972C208.815 11.0083 209.589 10.8639 210.477 10.8639C211.137 10.8639 211.673 10.9206 212.086 11.0341C212.509 11.1373 212.772 11.2198 212.875 11.2817L212.194 13.8663C212.091 13.7941 211.88 13.7012 211.56 13.5877C211.25 13.4742 210.807 13.4175 210.229 13.4175C209.373 13.4175 208.661 13.5723 208.093 13.8818C207.536 14.1913 207.092 14.604 206.762 15.1199C206.442 15.6255 206.215 16.1775 206.081 16.7759C205.947 17.3743 205.88 17.9676 205.88 18.5557V27.5476H203.249ZM215.858 27.5476V11.1115H218.458V27.5476H215.858ZM217.173 7.3352C216.688 7.3352 216.265 7.20107 215.904 6.93281C215.553 6.65423 215.378 6.27763 215.378 5.80302C215.378 5.33872 215.553 4.97244 215.904 4.70418C216.265 4.4256 216.688 4.28631 217.173 4.28631C217.658 4.28631 218.076 4.4256 218.427 4.70418C218.778 4.97244 218.953 5.33872 218.953 5.80302C218.953 6.27763 218.778 6.65423 218.427 6.93281C218.076 7.20107 217.658 7.3352 217.173 7.3352ZM224.202 20.382V18.0295H236.908L236.444 18.8033C236.444 18.7414 236.444 18.6847 236.444 18.6331C236.444 18.5712 236.444 18.5144 236.444 18.4629C236.444 17.5136 236.242 16.6469 235.84 15.8628C235.448 15.0683 234.86 14.4338 234.076 13.9592C233.292 13.4846 232.322 13.2473 231.166 13.2473C230 13.2473 228.974 13.4949 228.086 13.9901C227.199 14.4854 226.508 15.187 226.012 16.0949C225.517 16.9926 225.27 18.0656 225.27 19.3141C225.27 20.5831 225.507 21.6768 225.981 22.5951C226.466 23.5134 227.153 24.2201 228.04 24.7154C228.927 25.2106 229.98 25.4583 231.197 25.4583C232.064 25.4583 232.817 25.3706 233.457 25.1952C234.096 25.0094 234.623 24.767 235.035 24.4678C235.458 24.1582 235.778 23.8229 235.995 23.4618C236.211 23.1007 236.34 22.7396 236.382 22.3784H239.013C238.961 23.0388 238.755 23.6939 238.394 24.344C238.033 24.994 237.522 25.5872 236.861 26.1238C236.201 26.65 235.391 27.073 234.432 27.3928C233.472 27.7127 232.368 27.8726 231.12 27.8726C229.469 27.8726 228.014 27.5115 226.755 26.7893C225.497 26.067 224.506 25.0662 223.784 23.7868C223.072 22.5074 222.716 21.0371 222.716 19.376C222.716 17.6942 223.077 16.2188 223.799 14.9497C224.521 13.6703 225.517 12.6695 226.786 11.9472C228.055 11.225 229.505 10.8639 231.135 10.8639C232.796 10.8639 234.236 11.225 235.453 11.9472C236.671 12.6695 237.61 13.66 238.27 14.9187C238.93 16.1672 239.26 17.591 239.26 19.1903C239.26 19.3553 239.255 19.572 239.245 19.8403C239.235 20.1085 239.219 20.2891 239.198 20.382H224.202ZM255.123 27.5476V19.67C255.123 19.1954 255.123 18.8085 255.123 18.5093C255.123 18.1998 255.123 17.9057 255.123 17.6271C255.123 16.7708 254.979 16.0227 254.69 15.383C254.401 14.7433 253.947 14.2481 253.328 13.8973C252.709 13.5465 251.899 13.3711 250.898 13.3711C250.021 13.3711 249.206 13.5981 248.453 14.052C247.71 14.4957 247.112 15.0993 246.658 15.8628C246.214 16.616 245.992 17.462 245.992 18.401L244.491 17.8283C244.491 16.5386 244.806 15.3675 245.435 14.3151C246.075 13.2627 246.921 12.427 247.973 11.8079C249.036 11.1785 250.191 10.8639 251.44 10.8639C252.709 10.8639 253.818 11.1063 254.767 11.5913C255.717 12.0762 256.449 12.7726 256.965 13.6806C257.491 14.5782 257.754 15.6616 257.754 16.9307C257.754 17.3847 257.754 17.8799 257.754 18.4164C257.754 18.9529 257.754 19.4534 257.754 19.9177V27.5476H255.123ZM243.361 27.5476V11.1115H245.992V27.5476H243.361ZM270.144 27.8571C268.576 27.8571 267.152 27.5167 265.873 26.8357C264.593 26.1444 263.577 25.1591 262.824 23.8797C262.081 22.6003 261.71 21.0784 261.71 19.3141C261.71 17.5497 262.081 16.0382 262.824 14.7794C263.577 13.5104 264.593 12.5405 265.873 11.8698C267.152 11.1992 268.576 10.8639 270.144 10.8639C271.341 10.8639 272.409 11.0496 273.348 11.421C274.287 11.7821 275.081 12.2671 275.731 12.8758C276.381 13.4846 276.877 14.1552 277.217 14.8878C277.568 15.61 277.743 16.3322 277.743 17.0545C277.743 17.0648 277.743 17.0803 277.743 17.1009C277.743 17.1216 277.743 17.1422 277.743 17.1628H275.128C275.128 17.1112 275.123 17.0545 275.112 16.9926C275.102 16.9204 275.092 16.8481 275.081 16.7759C274.999 16.0846 274.736 15.481 274.292 14.9652C273.848 14.4389 273.271 14.0262 272.559 13.727C271.847 13.4278 271.037 13.2782 270.129 13.2782C269.107 13.2782 268.158 13.5 267.281 13.9437C266.414 14.377 265.713 15.0425 265.176 15.9402C264.65 16.8275 264.387 17.9521 264.387 19.3141C264.387 20.6657 264.65 21.7955 265.176 22.7034C265.703 23.6114 266.399 24.2975 267.266 24.7618C268.143 25.2158 269.097 25.4428 270.129 25.4428C271.243 25.4428 272.161 25.2674 272.884 24.9166C273.606 24.5658 274.148 24.1015 274.509 23.5237C274.88 22.9356 275.087 22.3062 275.128 21.6356H277.743C277.743 22.3784 277.578 23.1213 277.248 23.8642C276.918 24.5967 276.433 25.2674 275.793 25.8761C275.154 26.4746 274.359 26.9543 273.41 27.3155C272.471 27.6766 271.382 27.8571 270.144 27.8571ZM282.692 20.382V18.0295H295.398L294.934 18.8033C294.934 18.7414 294.934 18.6847 294.934 18.6331C294.934 18.5712 294.934 18.5144 294.934 18.4629C294.934 17.5136 294.733 16.6469 294.331 15.8628C293.939 15.0683 293.35 14.4338 292.566 13.9592C291.782 13.4846 290.812 13.2473 289.657 13.2473C288.491 13.2473 287.464 13.4949 286.577 13.9901C285.69 14.4854 284.998 15.187 284.503 16.0949C284.008 16.9926 283.76 18.0656 283.76 19.3141C283.76 20.5831 283.997 21.6768 284.472 22.5951C284.957 23.5134 285.643 24.2201 286.53 24.7154C287.418 25.2106 288.47 25.4583 289.688 25.4583C290.554 25.4583 291.308 25.3706 291.947 25.1952C292.587 25.0094 293.113 24.767 293.526 24.4678C293.949 24.1582 294.269 23.8229 294.485 23.4618C294.702 23.1007 294.831 22.7396 294.872 22.3784H297.503C297.452 23.0388 297.245 23.6939 296.884 24.344C296.523 24.994 296.012 25.5872 295.352 26.1238C294.692 26.65 293.882 27.073 292.922 27.3928C291.963 27.7127 290.859 27.8726 289.61 27.8726C287.959 27.8726 286.505 27.5115 285.246 26.7893C283.987 26.067 282.997 25.0662 282.274 23.7868C281.562 22.5074 281.206 21.0371 281.206 19.376C281.206 17.6942 281.568 16.2188 282.29 14.9497C283.012 13.6703 284.008 12.6695 285.277 11.9472C286.546 11.225 287.996 10.8639 289.626 10.8639C291.287 10.8639 292.726 11.225 293.944 11.9472C295.161 12.6695 296.1 13.66 296.76 14.9187C297.421 16.1672 297.751 17.591 297.751 19.1903C297.751 19.3553 297.746 19.572 297.735 19.8403C297.725 20.1085 297.71 20.2891 297.689 20.382H282.692Z" fill="#DB2C2C"/>
<line x1="120.408" y1="38.3819" x2="120.408" y2="0.309502" stroke="#DB2C2C" stroke-width="0.619063" stroke-linecap="round"/>
<line x1="120.098" y1="38.0723" x2="120.098" y2="0.619034" stroke="#DB2C2C" stroke-width="1.23813" stroke-linecap="round"/>
</svg>
