<svg width="75" height="75" viewBox="0 0 75 75" fill="none" xmlns="http://www.w3.org/2000/svg">
<path d="M37.5 0C58.2107 0 75 16.7893 75 37.5C75 58.2107 58.2107 75 37.5 75C16.7893 75 0 58.2107 0 37.5C0 16.7893 16.7893 0 37.5 0ZM37.1279 19.1396C35.0091 19.1396 33.0971 19.5887 31.3926 20.4883C29.6999 21.3879 28.3624 22.6431 27.3799 24.2529C26.3975 25.8627 25.9063 27.7328 25.9062 29.8633H30.0967C30.0967 28.4785 30.3744 27.271 30.9307 26.2412C31.4988 25.2114 32.2984 24.4129 33.3281 23.8447C34.3697 23.2648 35.5888 22.9747 36.9854 22.9746C38.2993 22.9746 39.4836 23.2293 40.5371 23.7383C41.5905 24.2473 42.4188 24.9692 43.0225 25.9043C43.638 26.8394 43.9463 27.9462 43.9463 29.2246C43.9463 30.3372 43.7213 31.403 43.2715 32.4209C42.8335 33.427 42.1584 34.5043 41.2471 35.6523C40.3356 36.7887 39.1751 38.1263 37.7666 39.665L25.7646 52.8037V56H48.7041V52.0938H31.8008V51.8096L39.9688 43.0742C42.0521 40.837 43.6797 38.9423 44.8516 37.3916C46.0351 35.8293 46.8634 34.4149 47.3369 33.1484C47.8222 31.8701 48.0654 30.5621 48.0654 29.2246C48.0654 27.3545 47.598 25.6558 46.6631 24.1289C45.728 22.6019 44.4374 21.3879 42.792 20.4883C41.1467 19.5887 39.2585 19.1397 37.1279 19.1396Z" fill="#DB2C2C"/>
</svg>
