<svg width="202" height="30" viewBox="0 0 202 30" fill="none" xmlns="http://www.w3.org/2000/svg">
<path fill-rule="evenodd" clip-rule="evenodd" d="M10.9258 1.63932C13.0169 1.63935 14.8834 2.1404 16.5247 3.14258C18.1739 4.13687 19.4724 5.56485 20.4193 7.42708C21.3662 9.28157 21.8392 11.5034 21.8392 14.0918C21.8392 16.68 21.3661 18.9053 20.4193 20.7676C19.731 22.1155 18.8556 23.2371 17.7962 24.1348L21.0579 28.3906H17.3177L15.2546 25.7031C13.9383 26.2634 12.4955 26.5442 10.9258 26.5443C8.82666 26.5443 6.95204 26.0471 5.30273 25.0527C3.66142 24.0505 2.3675 22.6182 1.42057 20.7559C0.473621 18.8935 1.50878e-05 16.6722 0 14.0918C0 11.5034 0.473603 9.28157 1.42057 7.42708C2.36748 5.56496 3.66154 4.13683 5.30273 3.14258C6.95204 2.14037 8.82666 1.63932 10.9258 1.63932ZM10.9258 4.97721C9.529 4.97721 8.2818 5.32826 7.1849 6.0306C6.08806 6.72503 5.21991 7.75084 4.58073 9.10807C3.94942 10.4575 3.63411 12.1189 3.63411 14.0918C3.63413 16.0646 3.94943 17.7299 4.58073 19.0872C5.21991 20.4366 6.08806 21.4624 7.1849 22.1647C8.2818 22.8592 9.529 23.2064 10.9258 23.2064C11.7115 23.2064 12.4503 23.0947 13.1426 22.8724L9.69466 18.3529H13.293L15.6309 21.401C16.2839 20.7809 16.8268 20.0099 17.2585 19.0872C17.8977 17.7299 18.2174 16.0646 18.2174 14.0918C18.2174 12.1189 17.8977 10.4575 17.2585 9.10807C16.6272 7.75082 15.759 6.72502 14.6543 6.0306C13.5574 5.3283 12.3146 4.97725 10.9258 4.97721Z" fill="white"/>
<path fill-rule="evenodd" clip-rule="evenodd" d="M94.028 7.79427C95.7325 7.79427 97.2204 8.1849 98.4909 8.96615C99.7613 9.74739 100.748 10.8446 101.45 12.2572C102.152 13.6697 102.503 15.3191 102.503 17.2051C102.503 19.0831 102.152 20.7243 101.45 22.1289C100.748 23.5336 99.7614 24.627 98.4909 25.4082C97.2204 26.1895 95.7325 26.5801 94.028 26.5801C92.3236 26.5801 90.8362 26.1893 89.5658 25.4082C88.2952 24.627 87.3085 23.5336 86.6061 22.1289C85.9039 20.7243 85.5528 19.0831 85.5527 17.2051C85.5527 15.3191 85.9039 13.6697 86.6061 12.2572C87.3085 10.8446 88.2952 9.7474 89.5658 8.96615C90.8362 8.185 92.3236 7.79428 94.028 7.79427ZM94.0397 10.7539C92.9272 10.7539 92.004 11.0495 91.2702 11.6413C90.5442 12.2331 90.0035 13.0183 89.6484 13.9967C89.3012 14.9673 89.1276 16.0328 89.1276 17.1927C89.1276 18.3606 89.3012 19.4304 89.6484 20.401C90.0035 21.3716 90.5442 22.1491 91.2702 22.7331C92.004 23.3169 92.9272 23.6087 94.0397 23.6087C95.1445 23.6087 96.0604 23.317 96.7865 22.7331C97.5124 22.1492 98.0486 21.3716 98.3958 20.401C98.7509 19.4304 98.9284 18.3606 98.9284 17.1927C98.9284 16.0328 98.7509 14.9673 98.3958 13.9967C98.0486 13.0184 97.5123 12.2331 96.7865 11.6413C96.0604 11.0494 95.1445 10.7539 94.0397 10.7539Z" fill="white"/>
<path d="M29.6549 19.1699C29.655 20.4088 29.9984 21.395 30.6849 22.1289C31.3714 22.8628 32.2631 23.2298 33.36 23.2298C34.0228 23.2298 34.6817 23.0644 35.3366 22.7331C35.9995 22.4016 36.5477 21.8999 36.9818 21.2292C37.4237 20.5584 37.6407 19.7063 37.6328 18.6725V8.03125H41.1842V26.2129H37.7044V23.0645H37.515C37.0967 24.035 36.4258 24.8438 35.5026 25.4909C34.5872 26.1301 33.4466 26.4499 32.0814 26.4499C30.9136 26.4499 29.88 26.1932 28.9805 25.6803C28.0887 25.1595 27.386 24.3897 26.873 23.3717C26.3681 22.3538 26.1159 21.095 26.1159 19.5957V8.03125H29.6549V19.1699Z" fill="white"/>
<path d="M78.9212 8.03125H82.6497V10.8717H78.9212V20.8743C78.9212 21.5609 79.0233 22.0779 79.2285 22.4251C79.4337 22.7645 79.6986 22.9974 80.0221 23.1237C80.3535 23.242 80.7124 23.3008 81.099 23.3008C81.383 23.3008 81.632 23.281 81.845 23.2415C82.0579 23.2021 82.2235 23.1708 82.3418 23.1471L82.9811 26.071C82.776 26.1499 82.4841 26.2284 82.1055 26.3073C81.7267 26.3941 81.253 26.442 80.6849 26.4499C79.7538 26.4657 78.8856 26.2996 78.0807 25.9525C77.2758 25.6053 76.6248 25.0685 76.1276 24.3424C75.6305 23.6164 75.3815 22.705 75.3815 21.6081V10.8717H72.7181V8.03125H75.3815V3.67513H78.9212V8.03125Z" fill="white"/>
<path d="M49.4792 26.2129H45.9401V8.03125H49.4792V26.2129Z" fill="white"/>
<path d="M63.2253 7.79427C64.4641 7.79432 65.5494 8.05473 66.4805 8.57552C67.4115 9.08844 68.1336 9.8539 68.6465 10.8717C69.1594 11.8897 69.416 13.1485 69.416 14.6478V26.2129H65.8763V15.0742C65.8763 13.7564 65.5329 12.7262 64.8464 11.9844C64.1598 11.2349 63.2169 10.86 62.0176 10.86C61.1969 10.86 60.4667 11.0375 59.8275 11.3926C59.1962 11.7477 58.6951 12.2686 58.3242 12.9551C57.9612 13.6337 57.78 14.4546 57.7799 15.4173V26.2129H54.2409V8.03125H57.638V10.9902H57.8626C58.2808 10.0276 58.9359 9.2545 59.8275 8.67057C60.7271 8.08661 61.86 7.79427 63.2253 7.79427Z" fill="white"/>
<path d="M115.439 7.79427C116.678 7.79432 117.763 8.05473 118.694 8.57552C119.625 9.08844 120.347 9.8539 120.86 10.8717C121.373 11.8897 121.63 13.1485 121.63 14.6478V26.2129H118.09V15.0742C118.09 13.7564 117.746 12.7262 117.06 11.9844C116.373 11.2349 115.43 10.86 114.231 10.86C113.41 10.86 112.68 11.0375 112.041 11.3926C111.41 11.7477 110.909 12.2686 110.538 12.9551C110.175 13.6337 109.993 14.4546 109.993 15.4173V26.2129H106.454V8.03125H109.852V10.9902H110.076C110.494 10.0276 111.149 9.2545 112.041 8.67057C112.941 8.08661 114.074 7.79427 115.439 7.79427Z" fill="white"/>
<path fill-rule="evenodd" clip-rule="evenodd" d="M140.018 1.9707C142.511 1.97072 144.665 2.45582 146.48 3.42643C148.303 4.38918 149.708 5.77807 150.695 7.5931C151.689 9.40022 152.186 11.5666 152.186 14.0918C152.186 16.617 151.693 18.7872 150.706 20.6022C149.72 22.4093 148.323 23.7983 146.516 24.7689C144.709 25.7316 142.574 26.2129 140.112 26.2129H130.785V1.9707H140.018ZM137.366 20.6257H139.876C141.075 20.6256 142.097 20.4322 142.941 20.0456C143.794 19.6589 144.441 18.9924 144.883 18.0456C145.333 17.0986 145.557 15.7805 145.557 14.0918C145.557 12.403 145.328 11.085 144.87 10.138C144.421 9.19112 143.758 8.52403 142.882 8.13737C142.014 7.75071 140.949 7.55731 139.686 7.55729H137.366V20.6257Z" fill="white"/>
<path d="M173.785 7.27344H161.812V11.4401H175.118L176.785 16.7435H161.812V20.9102H178.222L179.889 26.2129H155.231V1.9707H171.956L173.785 7.27344Z" fill="white"/>
<path d="M189.19 19.0632H189.38L194.351 1.9707H201.785L193.783 26.2129H184.786L176.785 1.9707H184.218L189.19 19.0632Z" fill="white"/>
<path d="M47.7272 1C48.3427 1 48.8674 1.20882 49.3014 1.62695C49.7433 2.03727 49.9641 2.5346 49.9642 3.11849C49.9642 3.69456 49.7433 4.19178 49.3014 4.61003C48.8674 5.02038 48.3427 5.22591 47.7272 5.22591C47.1117 5.22591 46.5832 5.02033 46.1413 4.61003C45.7072 4.19178 45.4902 3.69456 45.4902 3.11849C45.4903 2.5346 45.7073 2.03727 46.1413 1.62695C46.5831 1.20887 47.1118 1 47.7272 1Z" fill="white"/>
</svg>
