<svg width="210" height="32" viewBox="0 0 210 32" fill="none" xmlns="http://www.w3.org/2000/svg">
<path fill-rule="evenodd" clip-rule="evenodd" d="M14.9258 2.63932C17.0169 2.63935 18.8834 3.1404 20.5247 4.14258C22.1739 5.13687 23.4724 6.56485 24.4193 8.42708C25.3662 10.2816 25.8392 12.5034 25.8392 15.0918C25.8392 17.68 25.3661 19.9053 24.4193 21.7676C23.731 23.1155 22.8556 24.2371 21.7962 25.1348L25.0579 29.3906H21.3177L19.2546 26.7031C17.9383 27.2634 16.4955 27.5442 14.9258 27.5443C12.8267 27.5443 10.952 27.0471 9.30273 26.0527C7.66142 25.0505 6.3675 23.6182 5.42057 21.7559C4.47362 19.8935 4.00002 17.6722 4 15.0918C4 12.5034 4.4736 10.2816 5.42057 8.42708C6.36748 6.56496 7.66154 5.13683 9.30273 4.14258C10.952 3.14037 12.8267 2.63932 14.9258 2.63932ZM14.9258 5.97721C13.529 5.97721 12.2818 6.32826 11.1849 7.0306C10.0881 7.72503 9.21991 8.75084 8.58073 10.1081C7.94942 11.4575 7.63411 13.1189 7.63411 15.0918C7.63413 17.0646 7.94943 18.7299 8.58073 20.0872C9.21991 21.4366 10.0881 22.4624 11.1849 23.1647C12.2818 23.8592 13.529 24.2064 14.9258 24.2064C15.7115 24.2064 16.4503 24.0947 17.1426 23.8724L13.6947 19.3529H17.293L19.6309 22.401C20.2839 21.7809 20.8268 21.0099 21.2585 20.0872C21.8977 18.7299 22.2174 17.0646 22.2174 15.0918C22.2174 13.1189 21.8977 11.4575 21.2585 10.1081C20.6272 8.75082 19.759 7.72502 18.6543 7.0306C17.5574 6.3283 16.3146 5.97725 14.9258 5.97721Z" fill="black"/>
<path fill-rule="evenodd" clip-rule="evenodd" d="M98.028 8.79427C99.7325 8.79427 101.22 9.1849 102.491 9.96615C103.761 10.7474 104.748 11.8446 105.45 13.2572C106.152 14.6697 106.503 16.3191 106.503 18.2051C106.503 20.0831 106.152 21.7243 105.45 23.1289C104.748 24.5336 103.761 25.627 102.491 26.4082C101.22 27.1895 99.7325 27.5801 98.028 27.5801C96.3236 27.5801 94.8362 27.1893 93.5658 26.4082C92.2952 25.627 91.3085 24.5336 90.6061 23.1289C89.9039 21.7243 89.5528 20.0831 89.5527 18.2051C89.5527 16.3191 89.9039 14.6697 90.6061 13.2572C91.3085 11.8446 92.2952 10.7474 93.5658 9.96615C94.8362 9.185 96.3236 8.79428 98.028 8.79427ZM98.0397 11.7539C96.9272 11.7539 96.004 12.0495 95.2702 12.6413C94.5442 13.2331 94.0035 14.0183 93.6484 14.9967C93.3012 15.9673 93.1276 17.0328 93.1276 18.1927C93.1276 19.3606 93.3012 20.4304 93.6484 21.401C94.0035 22.3716 94.5442 23.1491 95.2702 23.7331C96.004 24.3169 96.9272 24.6087 98.0397 24.6087C99.1445 24.6087 100.06 24.317 100.786 23.7331C101.512 23.1492 102.049 22.3716 102.396 21.401C102.751 20.4304 102.928 19.3606 102.928 18.1927C102.928 17.0328 102.751 15.9673 102.396 14.9967C102.049 14.0184 101.512 13.2331 100.786 12.6413C100.06 12.0494 99.1445 11.7539 98.0397 11.7539Z" fill="black"/>
<path d="M33.6549 20.1699C33.655 21.4088 33.9984 22.395 34.6849 23.1289C35.3714 23.8628 36.2631 24.2298 37.36 24.2298C38.0228 24.2298 38.6817 24.0644 39.3366 23.7331C39.9995 23.4016 40.5477 22.8999 40.9818 22.2292C41.4237 21.5584 41.6407 20.7063 41.6328 19.6725V9.03125H45.1842V27.2129H41.7044V24.0645H41.515C41.0967 25.035 40.4258 25.8438 39.5026 26.4909C38.5872 27.1301 37.4466 27.4499 36.0814 27.4499C34.9136 27.4499 33.88 27.1932 32.9805 26.6803C32.0887 26.1595 31.386 25.3897 30.873 24.3717C30.3681 23.3538 30.1159 22.095 30.1159 20.5957V9.03125H33.6549V20.1699Z" fill="black"/>
<path d="M82.9212 9.03125H86.6497V11.8717H82.9212V21.8743C82.9212 22.5609 83.0233 23.0779 83.2285 23.4251C83.4337 23.7645 83.6986 23.9974 84.0221 24.1237C84.3535 24.242 84.7124 24.3008 85.099 24.3008C85.383 24.3008 85.632 24.281 85.845 24.2415C86.0579 24.2021 86.2235 24.1708 86.3418 24.1471L86.9811 27.071C86.776 27.1499 86.4841 27.2284 86.1055 27.3073C85.7267 27.3941 85.253 27.442 84.6849 27.4499C83.7538 27.4657 82.8856 27.2996 82.0807 26.9525C81.2758 26.6053 80.6248 26.0685 80.1276 25.3424C79.6305 24.6164 79.3815 23.705 79.3815 22.6081V11.8717H76.7181V9.03125H79.3815V4.67513H82.9212V9.03125Z" fill="black"/>
<path d="M53.4792 27.2129H49.9401V9.03125H53.4792V27.2129Z" fill="black"/>
<path d="M67.2253 8.79427C68.4641 8.79432 69.5494 9.05473 70.4805 9.57552C71.4115 10.0884 72.1336 10.8539 72.6465 11.8717C73.1594 12.8897 73.416 14.1485 73.416 15.6478V27.2129H69.8763V16.0742C69.8763 14.7564 69.5329 13.7262 68.8464 12.9844C68.1598 12.2349 67.2169 11.86 66.0176 11.86C65.1969 11.86 64.4667 12.0375 63.8275 12.3926C63.1962 12.7477 62.6951 13.2686 62.3242 13.9551C61.9612 14.6337 61.78 15.4546 61.7799 16.4173V27.2129H58.2409V9.03125H61.638V11.9902H61.8626C62.2808 11.0276 62.9359 10.2545 63.8275 9.67057C64.7271 9.08661 65.86 8.79427 67.2253 8.79427Z" fill="black"/>
<path d="M119.439 8.79427C120.678 8.79432 121.763 9.05473 122.694 9.57552C123.625 10.0884 124.347 10.8539 124.86 11.8717C125.373 12.8897 125.63 14.1485 125.63 15.6478V27.2129H122.09V16.0742C122.09 14.7564 121.746 13.7262 121.06 12.9844C120.373 12.2349 119.43 11.86 118.231 11.86C117.41 11.86 116.68 12.0375 116.041 12.3926C115.41 12.7477 114.909 13.2686 114.538 13.9551C114.175 14.6337 113.993 15.4546 113.993 16.4173V27.2129H110.454V9.03125H113.852V11.9902H114.076C114.494 11.0276 115.149 10.2545 116.041 9.67057C116.941 9.08661 118.074 8.79427 119.439 8.79427Z" fill="black"/>
<path fill-rule="evenodd" clip-rule="evenodd" d="M144.018 2.9707C146.511 2.97072 148.665 3.45582 150.48 4.42643C152.303 5.38918 153.708 6.77807 154.695 8.5931C155.689 10.4002 156.186 12.5666 156.186 15.0918C156.186 17.617 155.693 19.7872 154.706 21.6022C153.72 23.4093 152.323 24.7983 150.516 25.7689C148.709 26.7316 146.574 27.2129 144.112 27.2129H134.785V2.9707H144.018ZM141.366 21.6257H143.876C145.075 21.6256 146.097 21.4322 146.941 21.0456C147.794 20.6589 148.441 19.9924 148.883 19.0456C149.333 18.0986 149.557 16.7805 149.557 15.0918C149.557 13.403 149.328 12.085 148.87 11.138C148.421 10.1911 147.758 9.52403 146.882 9.13737C146.014 8.75071 144.949 8.55731 143.686 8.55729H141.366V21.6257Z" fill="black"/>
<path d="M177.785 8.27344H165.812V12.4401H179.118L180.785 17.7435H165.812V21.9102H182.222L183.889 27.2129H159.231V2.9707H175.956L177.785 8.27344Z" fill="black"/>
<path d="M193.19 20.0632H193.38L198.351 2.9707H205.785L197.783 27.2129H188.786L180.785 2.9707H188.218L193.19 20.0632Z" fill="black"/>
<path d="M51.7272 2C52.3427 2 52.8674 2.20882 53.3014 2.62695C53.7433 3.03727 53.9641 3.5346 53.9642 4.11849C53.9642 4.69456 53.7433 5.19178 53.3014 5.61003C52.8674 6.02038 52.3427 6.22591 51.7272 6.22591C51.1117 6.22591 50.5832 6.02033 50.1413 5.61003C49.7072 5.19178 49.4902 4.69456 49.4902 4.11849C49.4903 3.5346 49.7073 3.03727 50.1413 2.62695C50.5831 2.20887 51.1118 2 51.7272 2Z" fill="black"/>
</svg>
